<svg viewBox="-1.5 -1.5 48 48" fill="none" xmlns="http://www.w3.org/2000/svg" id="Document-Medicine--Streamline-Solar-Broken" height="48" width="48">
  <desc>
    Document Medicine Streamline Icon: https://streamlinehq.com
  </desc>
  <path d="m22.5 11.25 0 3.75m0 0 0 3.75m0 -3.75H18.749962500000002M22.5 15l3.75 0" stroke="#000000" stroke-linecap="round" stroke-width="3"></path>
  <path d="M15 26.25h1.875m13.125 0h-7.5" stroke="#000000" stroke-linecap="round" stroke-width="3"></path>
  <path d="M16.875 33.75h11.25" stroke="#000000" stroke-linecap="round" stroke-width="3"></path>
  <path d="M5.625 26.25v-7.5c0 -7.071075 0 -10.60659375 2.19669375 -12.80330625C10.01840625 3.75 13.553925000000001 3.75 20.625 3.75h3.75c7.071 0 10.6066875 0 12.80325 2.19669375 1.22475 1.22473125 1.7666250000000001 2.8655999999999997 2.0064375 5.30330625M39.375 18.75v7.5c0 7.071 0 10.6066875 -2.1967499999999998 12.80325C34.9816875 41.25 31.446 41.25 24.375 41.25h-3.75c-7.071075 0 -10.60659375 0 -12.80330625 -2.1967499999999998 -1.2247124999999999 -1.22475 -1.7666250000000001 -2.8655625 -2.0063999999999997 -5.303249999999999" stroke="#000000" stroke-linecap="round" stroke-width="3"></path>
</svg>