<svg xmlns="http://www.w3.org/2000/svg" viewBox="-1.5 -1.5 36 36" fill="none" stroke="#000000" stroke-linecap="round" stroke-linejoin="round" id="Folder-Tree--Streamline-Lucide" height="36" width="36">
  <desc>
    Folder Tree Streamline Icon: https://streamlinehq.com
  </desc>
  <path d="M27.5 13.75a1.375 1.375 0 0 0 1.375 -1.375V8.25a1.375 1.375 0 0 0 -1.375 -1.375h-3.4375a1.375 1.375 0 0 1 -1.1 -0.55l-1.2375 -1.65A1.375 1.375 0 0 0 20.625 4.125h-2.75a1.375 1.375 0 0 0 -1.375 1.375v6.875a1.375 1.375 0 0 0 1.375 1.375Z" stroke-width="3"></path>
  <path d="M27.5 28.875a1.375 1.375 0 0 0 1.375 -1.375v-4.125a1.375 1.375 0 0 0 -1.375 -1.375h-3.9875a1.375 1.375 0 0 1 -1.21 -0.7562500000000001l-0.5775 -1.16875a1.375 1.375 0 0 0 -1.2650000000000001 -0.825H17.875a1.375 1.375 0 0 0 -1.375 1.375v6.875a1.375 1.375 0 0 0 1.375 1.375Z" stroke-width="3"></path>
  <path d="M4.125 6.875a2.75 2.75 0 0 0 2.75 2.75h4.125" stroke-width="3"></path>
  <path d="M4.125 4.125v17.875a2.75 2.75 0 0 0 2.75 2.75h4.125" stroke-width="3"></path>
</svg>