<svg viewBox="-1.5 -1.5 48 48" fill="none" xmlns="http://www.w3.org/2000/svg" id="Calendar--Streamline-Solar-Broken" height="48" width="48">
  <desc>
    Calendar Streamline Icon: https://streamlinehq.com
  </desc>
  <path d="M26.25 41.25h-7.5c-7.071075 0 -10.60659375 0 -12.80330625 -2.1967499999999998C3.75 36.8566875 3.75 33.321 3.75 26.25v-3.75c0 -7.071075 0 -10.60659375 2.19669375 -12.80330625C8.14340625 7.5 11.678925000000001 7.5 18.75 7.5h7.5c7.071 0 10.6066875 0 12.80325 2.19669375C41.25 11.89340625 41.25 15.428925 41.25 22.5v3.75c0 7.071 0 10.6066875 -2.1967499999999998 12.80325 -1.22475 1.22475 -2.8655625 1.7666250000000001 -5.303249999999999 2.0064375" stroke="#000000" stroke-linecap="round" stroke-width="3"></path>
  <path d="M13.125 7.5V4.6875" stroke="#000000" stroke-linecap="round" stroke-width="3"></path>
  <path d="M31.875 7.5V4.6875" stroke="#000000" stroke-linecap="round" stroke-width="3"></path>
  <path d="M40.3125 16.875H20.15625M3.75 16.875h7.265625" stroke="#000000" stroke-linecap="round" stroke-width="3"></path>
  <path d="M33.75 31.875c0 1.0355625 -0.8394375 1.875 -1.875 1.875s-1.875 -0.8394375 -1.875 -1.875 0.8394375 -1.875 1.875 -1.875 1.875 0.8394375 1.875 1.875Z" fill="#000000" stroke-width="3"></path>
  <path d="M33.75 24.375c0 1.0355625 -0.8394375 1.875 -1.875 1.875s-1.875 -0.8394375 -1.875 -1.875 0.8394375 -1.875 1.875 -1.875 1.875 0.8394375 1.875 1.875Z" fill="#000000" stroke-width="3"></path>
  <path d="M24.375 31.875c0 1.0355625 -0.8394375 1.875 -1.875 1.875s-1.875 -0.8394375 -1.875 -1.875 0.8394375 -1.875 1.875 -1.875 1.875 0.8394375 1.875 1.875Z" fill="#000000" stroke-width="3"></path>
  <path d="M24.375 24.375c0 1.0355625 -0.8394375 1.875 -1.875 1.875s-1.875 -0.8394375 -1.875 -1.875 0.8394375 -1.875 1.875 -1.875 1.875 0.8394375 1.875 1.875Z" fill="#000000" stroke-width="3"></path>
  <path d="M15 31.875c0 1.0355625 -0.839475 1.875 -1.875 1.875s-1.875 -0.8394375 -1.875 -1.875 0.839475 -1.875 1.875 -1.875 1.875 0.8394375 1.875 1.875Z" fill="#000000" stroke-width="3"></path>
  <path d="M15 24.375c0 1.0355625 -0.839475 1.875 -1.875 1.875s-1.875 -0.8394375 -1.875 -1.875 0.839475 -1.875 1.875 -1.875 1.875 0.8394375 1.875 1.875Z" fill="#000000" stroke-width="3"></path>
</svg>