<svg viewBox="-1.5 -1.5 48 48" fill="none" xmlns="http://www.w3.org/2000/svg" id="Smile-Square--Streamline-Solar-Broken" height="48" width="48">
  <desc>
    Smile Square Streamline Icon: https://streamlinehq.com
  </desc>
  <path d="M16.875 30c1.5944625000000001 1.1818125 3.5336250000000002 1.875 5.625 1.875s4.0305 -0.6931875 5.625 -1.875" stroke="#000000" stroke-linecap="round" stroke-width="3"></path>
  <path fill="#000000" d="M26.25 19.6875a1.875 2.8125 0 1 0 3.75 0 1.875 2.8125 0 1 0 -3.75 0" stroke-width="3"></path>
  <path fill="#000000" d="M15 19.6875a1.875 2.8125 0 1 0 3.75 0 1.875 2.8125 0 1 0 -3.75 0" stroke-width="3"></path>
  <path d="M41.25 22.5c0 8.838750000000001 0 13.2583125 -2.7459374999999997 16.0040625C35.7583125 41.25 31.338749999999997 41.25 22.5 41.25c-8.83884375 0 -13.258256249999999 0 -16.00411875 -2.7459374999999997C3.75 35.7583125 3.75 31.338749999999997 3.75 22.5c0 -8.83884375 0 -13.258256249999999 2.74588125 -16.00411875C9.241743750000001 3.75 13.66115625 3.75 22.5 3.75c8.838750000000001 0 13.2583125 0 16.0040625 2.74588125 1.825875 1.8257625000000002 2.4376875 4.3914 2.642625 8.50411875" stroke="#000000" stroke-linecap="round" stroke-width="3"></path>
</svg>