<svg viewBox="-1.5 -1.5 48 48" fill="none" xmlns="http://www.w3.org/2000/svg" id="Library--Streamline-Solar-Broken" height="48" width="48">
  <desc>
    Library Streamline Icon: https://streamlinehq.com
  </desc>
  <path d="M36.6781875 13.125c0.4288125 -2.44644375 -1.453875 -4.6875 -3.9375 -4.6875H12.258525C9.774806250000001 8.4375 7.8922875 10.67855625 8.32095 13.125" stroke="#000000" stroke-width="3"></path>
  <path d="M32.8123125 8.4375c0.053250000000000006 -0.48577499999999996 0.079875 -0.72871875 0.08025 -0.9293437499999999 0.0043125 -1.91930625 -1.4415 -3.53195625 -3.349875 -3.73674375C29.3431875 3.75 29.098875 3.75 28.61025 3.75H16.38935625c-0.48869999999999997 0 -0.7330687499999999 0 -0.93256875 0.0214125 -1.9083374999999998 0.20478749999999998 -3.35401875 1.8174375 -3.3498375 3.736725 0.00043125 0.20064374999999998 0.027037500000000003 0.44355 0.08023125 0.9293625" stroke="#000000" stroke-width="3"></path>
  <path d="M28.125 33.75H16.875" stroke="#000000" stroke-linecap="round" stroke-width="3"></path>
  <path d="M39.737812500000004 31.486874999999998c-0.655875 4.6516875 -0.983625 6.9774375 -2.6658749999999998 8.370375C35.3896875 41.25 32.908500000000004 41.25 27.946125000000002 41.25H17.0538c-4.96228125 0 -7.44343125 0 -9.1256625 -1.39275 -1.68223125 -1.3929375 -2.01015 -3.7186875 -2.6659875 -8.370375l-0.79306875 -5.625c-0.8363062499999999 -5.93175 -1.2544499999999998 -8.89753125 0.52276875 -10.81719375C6.769068750000001 13.125 9.9329625 13.125 16.26073125 13.125h12.478518750000001c6.32775 0 9.491624999999999 0 11.268937500000002 1.91968125 1.4040000000000001 1.51659375 1.43775 3.686175 0.9778125 7.45531875" stroke="#000000" stroke-linecap="round" stroke-width="3"></path>
</svg>