<svg viewBox="-1.5 -1.5 48 48" fill="none" xmlns="http://www.w3.org/2000/svg" id="Login-2--Streamline-Solar-Broken" height="48" width="48">
  <desc>
    Login 2 Streamline Icon: https://streamlinehq.com
  </desc>
  <path d="m3.7518375000000006 22.498125 26.250037499999998 0m0 0 -6.5625 -5.6249625m6.5625 5.6249625 -6.5625 5.625" stroke="#000000" stroke-linecap="round" stroke-linejoin="round" stroke-width="3"></path>
  <path d="M16.878656250000002 13.125c0.022706249999999997 -4.07818125 0.20355 -6.2867625 1.6442625000000002 -7.727475C20.1705 3.75 22.822125 3.75 28.125375 3.75l1.875 0c5.303249999999999 0 7.9550625 0 9.602437499999999 1.6475250000000001 1.6475625 1.6475250000000001 1.6475625 4.29916875 1.6475625 9.602475l0 15c0 5.303249999999999 0 7.954875 -1.6475625 9.602437499999999 -1.44075 1.44075 -3.6493124999999997 1.6216875 -7.727812500000001 1.644375M16.878656250000002 31.875c0.022706249999999997 4.078125 0.20355 6.2866875 1.6442625000000002 7.7274375 1.20245625 1.2024375 2.9396437499999997 1.527375 5.8520812499999995 1.6151250000000001" stroke="#000000" stroke-linecap="round" stroke-width="3"></path>
</svg>