<svg viewBox="-1.5 -1.5 48 48" fill="none" xmlns="http://www.w3.org/2000/svg" id="Pen-2--Streamline-Solar-Broken" height="48" width="48">
  <desc>
    Pen 2 Streamline Icon: https://streamlinehq.com
  </desc>
  <path d="M7.5 41.25h7.5m22.5 0h-15" stroke="#000000" stroke-linecap="round" stroke-width="3"></path>
  <path d="m26.0401875 6.867993749999999 1.3903125 -1.39033125c2.3034375 -2.30355 6.038250000000001 -2.30355 8.341875 0 2.3034375 2.3035687499999997 2.3034375 6.0383625 0 8.3419125l-1.3903125 1.39033125m-8.341875 -8.3419125s0.173625 2.95441875 2.780625 5.56126875c2.6068125 2.60685 5.56125 2.78064375 5.56125 2.78064375m-8.341875 -8.3419125L13.2582375 19.649812500000003c-0.8657437499999999 0.8656874999999999 -1.298625 1.298625 -1.6708875 1.776 -0.43914375 0.562875 -0.81564375 1.1720625 -1.12284375 1.8166875 -0.2604 0.5463749999999999 -0.45399375000000003 1.1272499999999999 -0.8411625 2.2888124999999997l-1.640625 4.921875M34.382062499999996 15.20990625l-6.3909375 6.39084375m-6.3909375 6.3909375c-0.8656874999999999 0.865875 -1.298625 1.298625 -1.776 1.671 -0.562875 0.439125 -1.17215625 0.815625 -1.816725 1.12275 -0.5464125 0.2604375 -1.127175 0.454125 -2.2887 0.841125l-4.921875 1.6408125m0 0 -1.20313125 0.400875c-0.57159375 0.1906875 -1.2017624999999998 0.0418125 -1.62781875 -0.3841875 -0.4260375 -0.42600000000000005 -0.5748 -1.0561875 -0.3842625 -1.627875l0.40104375 -1.2029999999999998m2.8141687500000003 2.8141874999999996 -2.8141687500000003 -2.8141874999999996" stroke="#000000" stroke-linecap="round" stroke-width="3"></path>
</svg>