<svg viewBox="-1.5 -1.5 48 48" fill="none" xmlns="http://www.w3.org/2000/svg" id="Trash-Bin-Minimalistic--Streamline-Solar-Broken" height="48" width="48">
  <desc>
    Trash Bin Minimalistic Streamline Icon: https://streamlinehq.com
  </desc>
  <path d="M17.19496875 7.5c0.7722 -2.18473125 2.85571875 -3.75 5.30484375 -3.75 2.4493125 0 4.5328125 1.56526875 5.304937499999999 3.75" stroke="#000000" stroke-linecap="round" stroke-width="3"></path>
  <path d="M38.4376875 11.25H6.5625" stroke="#000000" stroke-linecap="round" stroke-width="3"></path>
  <path d="M34.4503125 28.8733125c-0.331875 4.9779375 -0.49781250000000005 7.4670000000000005 -2.1196875 8.98425C30.708750000000002 39.375 28.21425 39.375 23.22525 39.375h-1.4501249999999999c-4.989 0 -7.4835 0 -9.10539375 -1.5174375 -1.62189375 -1.51725 -1.78783125 -4.0063125 -2.1196875 -8.98425L9.68765625 15.9375m25.62496875 0 -0.375 5.625" stroke="#000000" stroke-linecap="round" stroke-width="3"></path>
  <path d="m17.8125 20.625 0.9375 9.375" stroke="#000000" stroke-linecap="round" stroke-width="3"></path>
  <path d="m27.1875 20.625 -0.9375 9.375" stroke="#000000" stroke-linecap="round" stroke-width="3"></path>
</svg>