<svg viewBox="-1.5 -1.5 48 48" fill="none" xmlns="http://www.w3.org/2000/svg" id="Home--Streamline-Solar-Broken" height="48" width="48">
  <desc>
    Home Streamline Icon: https://streamlinehq.com
  </desc>
  <path d="M41.25 22.8823125v2.8520624999999997c0 7.314 0 10.971187500000001 -2.1967499999999998 13.2433125C36.8566875 41.25 33.321 41.25 26.25 41.25h-7.5c-7.071075 0 -10.60659375 0 -12.80330625 -2.2723125C3.75 36.7055625 3.75 33.048375 3.75 25.734375v-2.8520624999999997c0 -4.29076875 0 -6.4361625 0.9735 -8.214675000000002 0.9735 -1.77849375 2.7520312500000004 -2.88230625 6.30905625 -5.08989375l3.75 -2.3273625C18.542606250000002 4.91679375 20.4226875 3.75 22.5 3.75c2.0773125 0 3.957375 1.16679375 7.717499999999999 3.50038125l3.75 2.32734375c3.5570625 2.20760625 5.335500000000001 3.31141875 6.308999999999999 5.0899125000000005" stroke="#000000" stroke-linecap="round" stroke-width="3"></path>
  <path d="M28.125 33.75H16.875" stroke="#000000" stroke-linecap="round" stroke-width="3"></path>
</svg>